<svg width="101" height="100" viewBox="0 0 101 100" fill="none" xmlns="http://www.w3.org/2000/svg">
<g clip-path="url(#clip0_1433_102944)">
<path d="M13.8154 42.2917C13.8675 45.7292 14.1279 49.0626 14.5967 52.448C16.7321 67.0313 24.9613 83.5417 47.3571 95.1042C49.18 96.0417 51.3154 96.0417 53.1383 95.1042C75.5863 83.5417 83.7633 67.0313 85.9508 52.448C86.4196 49.0626 86.68 45.7292 86.7321 42.2917V22.1355C86.7321 18.9584 84.7529 16.1459 81.7842 15.1042L52.8258 4.6355C51.1592 4.06258 49.3883 4.06258 47.7217 4.6355L18.7633 15.1042C15.7946 16.1459 13.8154 19.0105 13.8154 22.1355V42.2917Z" fill="#1967D2"/>
<path d="M47.7217 4.6355L18.7633 15.1042C15.7946 16.1459 13.8154 19.0105 13.8154 22.1355V42.2917C13.8675 45.7292 14.1279 49.0626 14.5967 52.448C16.7321 67.0313 24.9613 83.5417 47.4092 95.1042C48.2946 95.573 49.2842 95.7813 50.2738 95.7813V4.16675C49.3883 4.16675 48.555 4.323 47.7217 4.6355Z" fill="#185ABC"/>
<path d="M50.2734 49.6355H62.2005C61.3672 54.6355 57.0443 58.2813 50.6901 58.2813C43.7109 58.2813 38.0859 52.3959 38.0859 45.4167C38.0859 38.4376 43.7109 32.6042 50.6901 32.6042C53.8151 32.6042 56.6276 33.698 58.8672 35.7813L64.9609 29.6876C61.263 26.2501 56.4714 24.1667 50.7422 24.1667C39.0234 24.1667 29.4922 33.698 29.4922 45.4167C29.4922 57.1355 38.9714 66.6668 50.7422 66.6668C63.0339 66.6668 71.1068 58.0209 71.1068 45.8855C71.1068 44.323 70.9505 42.8647 70.6901 41.4063H50.2734V49.6355Z" fill="#E8F0FE"/>
<path d="M50.2738 58.2293C43.5029 57.9688 38.1383 52.1876 38.1383 45.4167C38.1383 38.5938 43.5029 32.8126 50.2738 32.6042V24.1667C38.7633 24.4272 29.4404 33.8542 29.4404 45.4167C29.4404 56.9792 38.7113 66.4063 50.2738 66.6668V58.2293Z" fill="#D2E3FC"/>
</g>
<defs>
<clipPath id="clip0_1433_102944">
<rect width="100" height="100" fill="white" transform="translate(0.273438)"/>
</clipPath>
</defs>
</svg>
